<?xml version="1.0" encoding="UTF-8" standalone="no"?><!DOCTYPE svg PUBLIC "-//W3C//DTD SVG 1.1//EN" "http://www.w3.org/Graphics/SVG/1.1/DTD/svg11.dtd"><svg width="100%" height="100%" viewBox="0 0 93 93" version="1.1" xmlns="http://www.w3.org/2000/svg" xmlns:xlink="http://www.w3.org/1999/xlink" xml:space="preserve" xmlns:serif="http://www.serif.com/" style="fill-rule:evenodd;clip-rule:evenodd;stroke-linejoin:round;stroke-miterlimit:1.41421;"><g><path d="M91.08,23.58c0,-9.257 -7.618,-16.875 -16.875,-16.875l-56.25,0c-9.257,0 -16.875,7.618 -16.875,16.875l0,45c0,9.257 7.618,16.875 16.875,16.875l22.669,0l0,-0.034c2.999,-0.095 5.414,-2.588 5.414,-5.588c0,-3.001 -2.415,-5.493 -5.414,-5.589l0,-0.039l-22.669,0c-3.086,0 -5.625,-2.539 -5.625,-5.625l0,-33.75l67.5,0l0,10.98l0.056,0c0,0.096 -0.056,0.174 -0.056,0.27c0,3.086 2.539,5.625 5.625,5.625c3.086,0 5.625,-2.539 5.625,-5.625c0,-0.096 -0.051,-0.174 -0.056,-0.27l0.056,0l0,-22.23Zm-78.75,5.625l0,-5.625c0,-3.086 2.539,-5.625 5.625,-5.625l56.25,0c3.086,0 5.625,2.539 5.625,5.625l0,5.625l-67.5,0Z" style="fill:url(#_Linear1);fill-rule:nonzero;"/><path d="M73.914,52.572c0,0 1.123,6.379 3.278,8.534c2.156,2.155 8.534,3.279 8.534,3.279c0,0 -6.378,1.034 -8.534,3.189c-2.155,2.155 -3.278,8.623 -3.278,8.623c0,0 -1.034,-6.468 -3.19,-8.623c-2.155,-2.155 -8.623,-3.189 -8.623,-3.189c0,0 6.468,-1.124 8.623,-3.279c2.156,-2.155 3.19,-8.534 3.19,-8.534m0,-5.25l-0.037,0c-2.55,0.018 -4.737,1.893 -5.145,4.41c-0.29,1.961 -0.873,3.867 -1.73,5.654c-1.834,0.895 -3.791,1.515 -5.806,1.838c-2.502,0.438 -4.346,2.631 -4.346,5.171c0,2.569 1.885,4.779 4.422,5.185c1.985,0.289 3.916,0.871 5.73,1.727c0.856,1.816 1.438,3.749 1.727,5.735c0.411,2.52 2.603,4.393 5.156,4.405l0.029,0c2.542,0.001 4.738,-1.845 5.174,-4.349c0.323,-2.013 0.943,-3.967 1.837,-5.799c1.788,-0.856 3.694,-1.439 5.654,-1.73c2.532,-0.41 4.411,-2.618 4.411,-5.182c0,-2.538 -1.84,-4.731 -4.34,-5.171c-1.989,-0.323 -3.919,-0.943 -5.725,-1.837c-0.893,-1.807 -1.513,-3.737 -1.837,-5.726c-0.444,-2.497 -2.638,-4.333 -5.174,-4.331Zm-17.063,38.063c-0.638,-0.005 -1.185,-0.475 -1.286,-1.105c-0.131,-1.1 -0.488,-2.16 -1.05,-3.114c-0.954,-0.561 -2.014,-0.919 -3.113,-1.05c-0.633,-0.102 -1.103,-0.654 -1.103,-1.295c0,-0.635 0.46,-1.183 1.084,-1.293c1.107,-0.15 2.171,-0.522 3.129,-1.095c0.557,-0.942 0.914,-1.988 1.05,-3.073c0.104,-0.63 0.652,-1.097 1.289,-1.1c0.634,0 1.181,0.46 1.292,1.084c0.15,1.095 0.523,2.148 1.094,3.095c0.948,0.567 1.999,0.938 3.093,1.092c0.621,0.113 1.077,0.659 1.077,1.291c0,0.638 -0.466,1.189 -1.096,1.294c-1.087,0.133 -2.135,0.491 -3.076,1.05c-0.571,0.959 -0.942,2.024 -1.092,3.129c-0.108,0.627 -0.656,1.089 -1.292,1.09Zm-1.312,-28.875c-0.638,-0.005 -1.184,-0.473 -1.286,-1.103c-0.097,-0.754 -0.333,-1.484 -0.696,-2.152c-0.668,-0.363 -1.398,-0.599 -2.153,-0.696c-0.633,-0.102 -1.103,-0.654 -1.103,-1.296c0,-0.634 0.46,-1.182 1.085,-1.292c0.762,-0.109 1.498,-0.355 2.171,-0.727c0.36,-0.662 0.593,-1.385 0.688,-2.132c0.102,-0.632 0.653,-1.102 1.294,-1.102c0.633,0 1.18,0.458 1.291,1.081c0.109,0.755 0.356,1.483 0.73,2.147c0.664,0.371 1.39,0.616 2.142,0.725c0.621,0.113 1.077,0.66 1.077,1.291c0,0.639 -0.466,1.189 -1.095,1.295c-0.747,0.098 -1.469,0.335 -2.129,0.698c-0.373,0.673 -0.619,1.409 -0.727,2.171c-0.107,0.626 -0.654,1.089 -1.289,1.092Z" style="fill:url(#_Linear2);"/></g><defs><linearGradient id="_Linear1" x1="0" y1="0" x2="1" y2="0" gradientUnits="userSpaceOnUse" gradientTransform="matrix(90,0,0,78.75,1.08,46.08)"><stop offset="0" style="stop-color:#f9d423;stop-opacity:1"/><stop offset="0.25" style="stop-color:#d97946;stop-opacity:1"/><stop offset="0.75" style="stop-color:#6018dc;stop-opacity:1"/><stop offset="1" style="stop-color:#43cbff;stop-opacity:1"/></linearGradient><linearGradient id="_Linear2" x1="0" y1="0" x2="1" y2="0" gradientUnits="userSpaceOnUse" gradientTransform="matrix(40.6914,0,0,39.375,50.2988,65.6972)"><stop offset="0" style="stop-color:#f9d423;stop-opacity:1"/><stop offset="0.25" style="stop-color:#d97946;stop-opacity:1"/><stop offset="0.75" style="stop-color:#6018dc;stop-opacity:1"/><stop offset="1" style="stop-color:#43cbff;stop-opacity:1"/></linearGradient></defs></svg>